<svg xmlns="http://www.w3.org/2000/svg" width="39.994" height="42" viewBox="0 0 39.994 42"><path d="M24.048,3a7.389,7.389,0,0,0-6.585,4.02v0l0,0C13.893,13.949,10.831,20,8.6,24.513c-1.118,2.258-2.029,4.132-2.7,5.55a26.134,26.134,0,0,0-1.279,2.953l0,.006,0,0a10.267,10.267,0,0,0-.567,3.108A8.908,8.908,0,0,0,12.936,45c5.532,0,9.331-4.41,11.111-6.447C25.827,40.589,29.626,45,35.159,45a8.908,8.908,0,0,0,8.885-8.867,10.274,10.274,0,0,0-.565-3.1l0-.006,0-.006A26.26,26.26,0,0,0,42.2,30.067c-.667-1.419-1.578-3.293-2.7-5.552C37.264,20,34.2,13.95,30.635,7.025l0-.007A7.386,7.386,0,0,0,24.048,3Zm0,3.818a3.4,3.4,0,0,1,3.186,1.941l0,0,0,0c3.561,6.916,6.617,12.951,8.839,17.441,1.111,2.245,2.015,4.1,2.664,5.485s1.075,2.418,1.091,2.467a7.431,7.431,0,0,1,.4,1.974,5.042,5.042,0,0,1-5.067,5.049c-3.419,0-7.018-3.7-8.654-5.554l0,0-.006-.006c1.766-2.2,4.711-6.068,4.711-10.392a7.162,7.162,0,0,0-14.318,0c0,4.33,2.945,8.2,4.709,10.392l0,0,0,.006c-1.638,1.856-5.235,5.554-8.654,5.554a5.041,5.041,0,0,1-5.067-5.049,7.376,7.376,0,0,1,.4-1.974c.013-.042.444-1.091,1.093-2.47s1.551-3.239,2.662-5.483c2.222-4.488,5.277-10.523,8.837-17.437l0,0,0,0A3.4,3.4,0,0,1,24.048,6.818Zm0,15.273a3.226,3.226,0,0,1,3.341,3.136c0,2.042-1.835,5.1-3.343,7.172-1.506-2.066-3.339-5.12-3.339-7.172A3.226,3.226,0,0,1,24.048,22.091Z" transform="translate(-4.051 -3)"/></svg>