<svg xmlns="http://www.w3.org/2000/svg" width="42" height="42" viewBox="0 0 42 42"><path d="M32.811,12C13.511,12,12,13.511,12,32.811v.377C12,52.489,13.511,54,32.811,54h.377C52.489,54,54,52.489,54,33.189V33c0-19.475-1.525-21-21-21ZM28.8,16.2h8.4c11.685,0,12.6.915,12.6,12.6v8.4c0,11.685-.915,12.6-12.6,12.6H28.8c-11.685,0-12.6-.915-12.6-12.6V28.8C16.2,17.115,17.115,16.2,28.8,16.2Zm14.694,4.2A2.1,2.1,0,1,0,45.6,22.494,2.1,2.1,0,0,0,43.494,20.4ZM32.975,22.5A10.5,10.5,0,1,0,43.5,32.975,10.5,10.5,0,0,0,32.975,22.5Zm.01,4.2A6.3,6.3,0,1,1,26.7,33.014,6.3,6.3,0,0,1,32.986,26.7Z" transform="translate(-12 -12)"/></svg>