<svg xmlns="http://www.w3.org/2000/svg" width="41.809" height="42" viewBox="0 0 41.809 42"><path d="M39.719,10.1A20.82,20.82,0,0,0,6.953,35.214L4,46l11.038-2.9a20.832,20.832,0,0,0,9.949,2.538h.007A20.821,20.821,0,0,0,39.719,10.1ZM24.993,42.121h-.007a17.3,17.3,0,0,1-8.806-2.409l-.633-.374L8.995,41.053l1.749-6.383-.408-.653a17.3,17.3,0,1,1,14.658,8.1Zm9.486-12.957c-.517-.259-3.076-1.518-3.552-1.688s-.823-.259-1.17.259-1.341,1.694-1.647,2.042-.606.388-1.123.129A14.072,14.072,0,0,1,22.8,27.32a15.569,15.569,0,0,1-2.892-3.6c-.306-.524-.034-.8.225-1.062.238-.231.524-.606.783-.912a3.614,3.614,0,0,0,.524-.864.969.969,0,0,0-.048-.912c-.129-.259-1.17-2.824-1.606-3.865-.422-1.014-.851-.871-1.17-.891-.3-.014-.646-.014-.993-.014a1.9,1.9,0,0,0-1.388.653,5.819,5.819,0,0,0-1.817,4.335,10.146,10.146,0,0,0,2.123,5.383c.259.34,3.668,5.594,8.887,7.846a28.851,28.851,0,0,0,2.96,1.1,7.233,7.233,0,0,0,3.28.211c1-.15,3.076-1.259,3.511-2.477a4.371,4.371,0,0,0,.3-2.47C35.35,29.559,35,29.43,34.479,29.165Z" transform="translate(-4 -4)" fill-rule="evenodd"/></svg>